<?xml version="1.0" encoding="UTF-8"?>
<svg id="Capa_1" xmlns="http://www.w3.org/2000/svg" viewBox="0 0 769.59 170.69">
  <defs>
    <style>
      .cls-1 {
        fill: #fff;
      }

      .cls-2 {
        fill: #f9b233;
      }
    </style>
  </defs>
  <g>
    <rect class="cls-1" x="20.14" y="27.47" width="733.09" height="130.91" rx="57.4" ry="57.4"/>
    <rect class="cls-2" x="20.14" y="16.39" width="733.09" height="130.91" rx="57.4" ry="57.4"/>
  </g>
  <g>
    <path class="cls-1" d="M182.58,75.54v-36.79h12.4v36.79h-12.4Z"/>
    <path class="cls-1" d="M200.97,75.54v-36.79h10.2l18.71,22.39h-4.73v-22.39h12.09v36.79h-10.2l-18.71-22.39h4.73v22.39h-12.09Z"/>
    <path class="cls-1" d="M255.63,75.54h-12.4v-36.79h29.9v9.35h-17.5v27.43ZM254.79,54.41h16.19v9.35h-16.19v-9.35Z"/>
    <path class="cls-1" d="M296.14,76.38c-3.01,0-5.79-.47-8.33-1.42s-4.74-2.29-6.59-4.02c-1.86-1.73-3.3-3.78-4.34-6.12-1.03-2.35-1.55-4.9-1.55-7.67s.52-5.37,1.55-7.7,2.48-4.36,4.34-6.1c1.86-1.73,4.05-3.07,6.59-4.02s5.3-1.42,8.28-1.42,5.78.47,8.3,1.42c2.52.95,4.71,2.29,6.57,4.02,1.86,1.73,3.3,3.77,4.33,6.1s1.55,4.9,1.55,7.7-.52,5.33-1.55,7.67c-1.03,2.35-2.48,4.39-4.33,6.12-1.86,1.73-4.05,3.07-6.57,4.02-2.52.95-5.27,1.42-8.25,1.42ZM296.09,66.34c1.16,0,2.23-.21,3.23-.63,1-.42,1.87-1.02,2.63-1.81s1.34-1.75,1.76-2.89c.42-1.14.63-2.43.63-3.86s-.21-2.72-.63-3.86c-.42-1.14-1.01-2.1-1.76-2.89s-1.63-1.39-2.63-1.81c-1-.42-2.08-.63-3.23-.63s-2.23.21-3.23.63c-1,.42-1.87,1.02-2.63,1.81s-1.34,1.75-1.76,2.89c-.42,1.14-.63,2.43-.63,3.86s.21,2.72.63,3.86c.42,1.14,1.01,2.1,1.76,2.89s1.63,1.39,2.63,1.81c1,.42,2.08.63,3.23.63Z"/>
    <path class="cls-1" d="M321.37,75.54v-36.79h17.71c3.43,0,6.4.56,8.91,1.68,2.5,1.12,4.44,2.72,5.81,4.81,1.37,2.08,2.05,4.54,2.05,7.38s-.68,5.28-2.05,7.33-3.3,3.62-5.81,4.7c-2.5,1.09-5.47,1.63-8.91,1.63h-10.83l5.52-5.1v14.35h-12.4ZM333.77,62.56l-5.52-5.62h10.04c1.72,0,2.99-.39,3.81-1.16.82-.77,1.23-1.82,1.23-3.15s-.41-2.38-1.23-3.15c-.82-.77-2.09-1.16-3.81-1.16h-10.04l5.52-5.62v19.86ZM343.39,75.54l-9.04-13.4h13.14l9.14,13.4h-13.24Z"/>
    <path class="cls-1" d="M360.52,75.54v-36.79h10.2l14.71,24.02h-5.36l14.29-24.02h10.2l.11,36.79h-11.3l-.11-19.76h1.79l-9.77,16.45h-5.47l-10.19-16.45h2.21v19.76h-11.3Z"/>
    <path class="cls-1" d="M406.65,75.54l16.08-36.79h12.19l16.08,36.79h-12.82l-11.88-30.9h4.83l-11.88,30.9h-12.61ZM416.22,69.13l3.15-8.93h16.92l3.15,8.93h-23.23Z"/>
    <path class="cls-1" d="M471.5,76.38c-2.94,0-5.67-.46-8.17-1.39-2.5-.93-4.68-2.25-6.52-3.97-1.84-1.72-3.27-3.75-4.28-6.1-1.02-2.35-1.52-4.94-1.52-7.78s.51-5.43,1.52-7.78c1.02-2.35,2.44-4.38,4.28-6.1,1.84-1.72,4.01-3.04,6.52-3.97,2.5-.93,5.23-1.39,8.17-1.39,3.61,0,6.8.63,9.59,1.89,2.79,1.26,5.09,3.08,6.91,5.47l-7.83,6.99c-1.09-1.37-2.29-2.43-3.6-3.18-1.31-.75-2.79-1.13-4.44-1.13-1.3,0-2.47.21-3.52.63-1.05.42-1.95,1.03-2.71,1.84-.75.81-1.34,1.78-1.76,2.92-.42,1.14-.63,2.41-.63,3.81s.21,2.67.63,3.81c.42,1.14,1.01,2.11,1.76,2.92.75.81,1.66,1.42,2.71,1.84,1.05.42,2.22.63,3.52.63,1.65,0,3.13-.38,4.44-1.13,1.31-.75,2.51-1.81,3.6-3.18l7.83,6.99c-1.82,2.35-4.12,4.16-6.91,5.44s-5.98,1.92-9.59,1.92Z"/>
    <path class="cls-1" d="M491.58,75.54v-36.79h12.4v36.79h-12.4Z"/>
    <path class="cls-1" d="M529.31,76.38c-3.01,0-5.79-.47-8.33-1.42s-4.74-2.29-6.59-4.02c-1.86-1.73-3.3-3.78-4.33-6.12-1.03-2.35-1.55-4.9-1.55-7.67s.52-5.37,1.55-7.7c1.03-2.33,2.48-4.36,4.33-6.1,1.86-1.73,4.05-3.07,6.59-4.02s5.3-1.42,8.28-1.42,5.78.47,8.3,1.42c2.52.95,4.71,2.29,6.57,4.02,1.86,1.73,3.3,3.77,4.34,6.1,1.03,2.33,1.55,4.9,1.55,7.7s-.52,5.33-1.55,7.67c-1.03,2.35-2.48,4.39-4.34,6.12-1.86,1.73-4.05,3.07-6.57,4.02-2.52.95-5.27,1.42-8.25,1.42ZM529.25,66.34c1.16,0,2.23-.21,3.23-.63,1-.42,1.87-1.02,2.63-1.81.75-.79,1.34-1.75,1.76-2.89.42-1.14.63-2.43.63-3.86s-.21-2.72-.63-3.86c-.42-1.14-1.01-2.1-1.76-2.89-.75-.79-1.63-1.39-2.63-1.81-1-.42-2.08-.63-3.23-.63s-2.23.21-3.23.63c-1,.42-1.88,1.02-2.63,1.81-.75.79-1.34,1.75-1.76,2.89-.42,1.14-.63,2.43-.63,3.86s.21,2.72.63,3.86c.42,1.14,1.01,2.1,1.76,2.89.75.79,1.63,1.39,2.63,1.81,1,.42,2.08.63,3.23.63ZM523.74,35.76l6.94-8.41h11.3l-10.35,8.41h-7.88Z"/>
    <path class="cls-1" d="M554.53,75.54v-36.79h10.2l18.71,22.39h-4.73v-22.39h12.09v36.79h-10.2l-18.71-22.39h4.73v22.39h-12.09Z"/>
    <path class="cls-1" d="M200.87,126.54v-36.79h12.4v36.79h-12.4Z"/>
    <path class="cls-1" d="M219.26,126.54v-36.79h10.2l14.71,24.02h-5.36l14.29-24.02h10.2l.11,36.79h-11.3l-.11-19.76h1.79l-9.77,16.45h-5.47l-10.19-16.45h2.21v19.76h-11.3Z"/>
    <path class="cls-1" d="M269.39,126.54v-36.79h17.71c3.43,0,6.4.56,8.91,1.68,2.5,1.12,4.44,2.72,5.81,4.81,1.37,2.08,2.05,4.54,2.05,7.38s-.68,5.29-2.05,7.36c-1.37,2.07-3.3,3.67-5.81,4.81s-5.47,1.71-8.91,1.71h-10.83l5.52-5.31v14.35h-12.4ZM281.8,113.56l-5.52-5.62h10.04c1.72,0,2.99-.39,3.81-1.16s1.24-1.82,1.24-3.15-.41-2.38-1.24-3.15-2.09-1.16-3.81-1.16h-10.04l5.52-5.62v19.86Z"/>
    <path class="cls-1" d="M327.78,127.38c-3.01,0-5.79-.47-8.33-1.42s-4.74-2.29-6.59-4.02c-1.86-1.73-3.3-3.78-4.34-6.12-1.03-2.35-1.55-4.9-1.55-7.67s.52-5.37,1.55-7.7,2.48-4.36,4.34-6.1c1.86-1.73,4.05-3.07,6.59-4.02s5.3-1.42,8.28-1.42,5.78.47,8.3,1.42c2.52.95,4.71,2.29,6.57,4.02,1.86,1.73,3.3,3.77,4.33,6.1s1.55,4.9,1.55,7.7-.52,5.33-1.55,7.67c-1.03,2.35-2.48,4.39-4.33,6.12-1.86,1.73-4.05,3.07-6.57,4.02-2.52.95-5.27,1.42-8.25,1.42ZM327.72,117.34c1.16,0,2.23-.21,3.23-.63,1-.42,1.87-1.02,2.63-1.81s1.34-1.75,1.76-2.89c.42-1.14.63-2.43.63-3.86s-.21-2.72-.63-3.86c-.42-1.14-1.01-2.1-1.76-2.89s-1.63-1.39-2.63-1.81c-1-.42-2.08-.63-3.23-.63s-2.23.21-3.23.63c-1,.42-1.87,1.02-2.63,1.81s-1.34,1.75-1.76,2.89c-.42,1.14-.63,2.43-.63,3.86s.21,2.72.63,3.86c.42,1.14,1.01,2.1,1.76,2.89s1.63,1.39,2.63,1.81c1,.42,2.08.63,3.23.63Z"/>
    <path class="cls-1" d="M353,126.54v-36.79h17.71c3.43,0,6.4.56,8.91,1.68,2.5,1.12,4.44,2.72,5.81,4.81,1.37,2.08,2.05,4.54,2.05,7.38s-.68,5.28-2.05,7.33-3.3,3.62-5.81,4.7c-2.5,1.09-5.47,1.63-8.91,1.63h-10.83l5.52-5.1v14.35h-12.4ZM365.4,113.56l-5.52-5.62h10.04c1.72,0,2.99-.39,3.81-1.16.82-.77,1.23-1.82,1.23-3.15s-.41-2.38-1.23-3.15c-.82-.77-2.09-1.16-3.81-1.16h-10.04l5.52-5.62v19.86ZM375.02,126.54l-9.04-13.4h13.14l9.14,13.4h-13.24Z"/>
    <path class="cls-1" d="M399.61,126.54v-27.17h-10.77v-9.62h33.95v9.62h-10.77v27.17h-12.4Z"/>
    <path class="cls-1" d="M420.16,126.54l16.08-36.79h12.19l16.08,36.79h-12.82l-11.88-30.9h4.83l-11.88,30.9h-12.61ZM429.72,120.13l3.15-8.93h16.92l3.15,8.93h-23.23Z"/>
    <path class="cls-1" d="M466.51,126.54v-36.79h10.19l18.71,22.39h-4.73v-22.39h12.09v36.79h-10.2l-18.71-22.39h4.73v22.39h-12.09Z"/>
    <path class="cls-1" d="M516.75,126.54v-27.17h-10.77v-9.62h33.95v9.62h-10.77v27.17h-12.4Z"/>
    <path class="cls-1" d="M555.32,117.18h18.39v9.35h-30.58v-36.79h29.9v9.35h-17.71v18.08ZM554.48,103.41h16.4v8.93h-16.4v-8.93Z"/>
  </g>
</svg>