<?xml version="1.0" encoding="UTF-8"?>
<svg id="Capa_1" xmlns="http://www.w3.org/2000/svg" viewBox="0 0 777.9 175.97">
  <defs>
    <style>
      .cls-1 {
        fill: #fff;
      }

      .cls-2 {
        fill: #f9b233;
      }
    </style>
  </defs>
  <g>
    <rect class="cls-1" x="23.92" y="30.74" width="733.09" height="130.91" rx="57.4" ry="57.4"/>
    <rect class="cls-2" x="23.92" y="19.66" width="733.09" height="130.91" rx="57.4" ry="57.4"/>
  </g>
  <g>
    <path class="cls-1" d="M137.85,109.8l-20.69-48.94h17.76l16.85,41.31h-10.56l17.34-41.31h16.22l-20.69,48.94h-16.22Z"/>
    <path class="cls-1" d="M201.4,110.92c-4.01,0-7.7-.63-11.08-1.89-3.38-1.26-6.3-3.04-8.77-5.35-2.47-2.31-4.39-5.02-5.77-8.14-1.38-3.12-2.06-6.52-2.06-10.21s.69-7.14,2.06-10.24c1.37-3.1,3.3-5.8,5.77-8.11,2.47-2.31,5.39-4.09,8.77-5.35,3.38-1.26,7.05-1.89,11.01-1.89s7.69.63,11.04,1.89c3.36,1.26,6.27,3.04,8.74,5.35s4.39,5.01,5.77,8.11,2.06,6.51,2.06,10.24-.69,7.09-2.06,10.21c-1.38,3.12-3.3,5.84-5.77,8.14s-5.38,4.09-8.74,5.35-7.01,1.89-10.97,1.89ZM201.33,97.57c1.54,0,2.97-.28,4.3-.84,1.33-.56,2.49-1.36,3.5-2.41,1-1.05,1.78-2.33,2.34-3.85.56-1.51.84-3.23.84-5.14s-.28-3.62-.84-5.14c-.56-1.52-1.34-2.8-2.34-3.85-1-1.05-2.17-1.85-3.5-2.41s-2.76-.84-4.3-.84-2.97.28-4.3.84-2.49,1.36-3.5,2.41-1.78,2.33-2.34,3.85c-.56,1.51-.84,3.23-.84,5.14s.28,3.62.84,5.14c.56,1.52,1.34,2.8,2.34,3.85s2.17,1.85,3.5,2.41c1.33.56,2.76.84,4.3.84Z"/>
    <path class="cls-1" d="M245.44,109.8v-21.46l3.78,9.86-22.23-37.33h17.41l15.03,25.52h-10.14l15.17-25.52h15.94l-22.09,37.33,3.63-9.86v21.46h-16.5Z"/>
    <path class="cls-1" d="M303.46,109.8v-48.94h23.56c4.57,0,8.52.75,11.85,2.24,3.33,1.49,5.91,3.62,7.72,6.4,1.82,2.77,2.73,6.05,2.73,9.82s-.91,7.04-2.73,9.79c-1.82,2.75-4.39,4.88-7.72,6.4-3.33,1.52-7.28,2.27-11.85,2.27h-14.4l7.34-7.06v19.09h-16.5ZM319.96,92.54l-7.34-7.48h13.35c2.28,0,3.97-.51,5.07-1.54,1.1-1.03,1.64-2.42,1.64-4.2s-.55-3.17-1.64-4.19c-1.09-1.03-2.79-1.54-5.07-1.54h-13.35l7.34-7.48v26.43Z"/>
    <path class="cls-1" d="M346.94,109.8l21.39-48.94h16.22l21.39,48.94h-17.06l-15.8-41.11h6.43l-15.8,41.11h-16.78ZM359.67,101.28l4.2-11.88h22.51l4.19,11.88h-30.9Z"/>
    <path class="cls-1" d="M422.44,67.37l-13.77-11.19h15.03l9.23,11.19h-10.49Z"/>
    <path class="cls-1" d="M466.76,97.36h24.47v12.44h-40.69v-48.94h39.78v12.44h-23.56v24.05ZM465.65,79.04h21.81v11.88h-21.81v-11.88Z"/>
    <path class="cls-1" d="M515.84,110.92c-4.1,0-8.06-.46-11.88-1.4-3.82-.93-6.97-2.14-9.44-3.64l5.31-12.02c2.33,1.35,4.93,2.44,7.79,3.25,2.87.82,5.65,1.22,8.35,1.22,1.58,0,2.83-.11,3.74-.31.91-.21,1.57-.51,1.99-.91.42-.39.63-.87.63-1.43,0-.88-.49-1.58-1.47-2.1-.98-.51-2.27-.94-3.88-1.29s-3.37-.72-5.28-1.12c-1.91-.39-3.83-.92-5.77-1.57-1.94-.65-3.71-1.51-5.31-2.59-1.61-1.07-2.9-2.48-3.88-4.23s-1.47-3.93-1.47-6.54c0-3.03.85-5.79,2.55-8.28,1.7-2.49,4.24-4.48,7.62-5.98s7.59-2.24,12.62-2.24c3.31,0,6.57.35,9.79,1.05,3.21.7,6.1,1.77,8.67,3.22l-4.96,11.95c-2.42-1.21-4.77-2.12-7.03-2.73-2.26-.61-4.46-.91-6.61-.91-1.58,0-2.84.14-3.78.42-.93.28-1.6.65-1.99,1.12-.4.47-.59.98-.59,1.54,0,.84.49,1.5,1.47,1.99.98.49,2.27.9,3.88,1.22,1.61.33,3.38.68,5.31,1.05s3.86.89,5.77,1.54,3.67,1.51,5.28,2.59c1.61,1.07,2.9,2.47,3.88,4.19.98,1.73,1.47,3.87,1.47,6.43,0,2.98-.85,5.72-2.55,8.21-1.7,2.49-4.23,4.5-7.58,6.01s-7.57,2.27-12.65,2.27Z"/>
    <path class="cls-1" d="M538.21,109.8l21.39-48.94h16.22l21.39,48.94h-17.06l-15.8-41.11h6.43l-15.8,41.11h-16.78ZM550.93,101.28l4.2-11.88h22.51l4.19,11.88h-30.9Z"/>
    <path class="cls-1" d="M618.11,110.92c-4.1,0-8.06-.46-11.88-1.4-3.82-.93-6.97-2.14-9.44-3.64l5.31-12.02c2.33,1.35,4.93,2.44,7.79,3.25,2.87.82,5.65,1.22,8.35,1.22,1.58,0,2.83-.11,3.74-.31.91-.21,1.57-.51,1.99-.91.42-.39.63-.87.63-1.43,0-.88-.49-1.58-1.47-2.1-.98-.51-2.27-.94-3.88-1.29-1.61-.35-3.37-.72-5.28-1.12-1.91-.39-3.83-.92-5.77-1.57s-3.71-1.51-5.31-2.59c-1.61-1.07-2.9-2.48-3.88-4.23-.98-1.75-1.47-3.93-1.47-6.54,0-3.03.85-5.79,2.55-8.28,1.7-2.49,4.24-4.48,7.62-5.98,3.38-1.49,7.58-2.24,12.62-2.24,3.31,0,6.57.35,9.79,1.05,3.22.7,6.11,1.77,8.67,3.22l-4.96,11.95c-2.42-1.21-4.77-2.12-7.03-2.73-2.26-.61-4.46-.91-6.61-.91-1.59,0-2.84.14-3.78.42-.93.28-1.6.65-1.99,1.12-.4.47-.6.98-.6,1.54,0,.84.49,1.5,1.47,1.99.98.49,2.27.9,3.88,1.22,1.61.33,3.38.68,5.31,1.05,1.93.37,3.86.89,5.77,1.54,1.91.65,3.67,1.51,5.28,2.59s2.9,2.47,3.88,4.19c.98,1.73,1.47,3.87,1.47,6.43,0,2.98-.85,5.72-2.55,8.21-1.7,2.49-4.23,4.5-7.59,6.01s-7.57,2.27-12.65,2.27Z"/>
    <path class="cls-1" d="M646.5,91.07l-3.14-30.2h18.88l-3.15,30.2h-12.58ZM652.79,110.5c-2.7,0-4.92-.83-6.64-2.48s-2.59-3.62-2.59-5.91.86-4.29,2.59-5.87,3.94-2.38,6.64-2.38,4.97.79,6.68,2.38,2.55,3.54,2.55,5.87-.85,4.25-2.55,5.91-3.93,2.48-6.68,2.48Z"/>
  </g>
</svg>