<?xml version="1.0" encoding="UTF-8"?>
<svg id="Capa_1" xmlns="http://www.w3.org/2000/svg" viewBox="0 0 623.37 129.06">
  <defs>
    <style>
      .cls-1 {
        fill: #fff;
      }

      .cls-2 {
        fill: #f9b233;
      }
    </style>
  </defs>
  <g>
    <rect class="cls-1" x="6.38" y="15.98" width="601.82" height="103.37" rx="51.69" ry="51.69"/>
    <rect class="cls-2" x="12.4" y="11.69" width="589.78" height="101.31" rx="50.65" ry="50.65"/>
  </g>
  <g>
    <path class="cls-1" d="M158.21,83.01c-2.94,0-5.67-.46-8.17-1.39-2.51-.93-4.68-2.25-6.52-3.97-1.84-1.72-3.27-3.75-4.28-6.1-1.02-2.35-1.52-4.94-1.52-7.78s.51-5.43,1.52-7.78c1.02-2.35,2.44-4.38,4.28-6.1,1.84-1.72,4.01-3.04,6.52-3.97,2.5-.93,5.23-1.39,8.17-1.39,3.61,0,6.81.63,9.59,1.89,2.79,1.26,5.09,3.08,6.91,5.47l-7.83,6.99c-1.09-1.37-2.29-2.43-3.6-3.18-1.31-.75-2.79-1.13-4.44-1.13-1.3,0-2.47.21-3.52.63-1.05.42-1.95,1.03-2.71,1.84-.75.81-1.34,1.78-1.76,2.92s-.63,2.41-.63,3.81.21,2.67.63,3.81c.42,1.14,1.01,2.11,1.76,2.92.75.81,1.66,1.42,2.71,1.84,1.05.42,2.22.63,3.52.63,1.65,0,3.13-.38,4.44-1.13,1.31-.75,2.51-1.81,3.6-3.18l7.83,6.99c-1.82,2.35-4.12,4.16-6.91,5.44s-5.98,1.92-9.59,1.92Z"/>
    <path class="cls-1" d="M190.69,82.17h-12.4v-36.79h12.4v36.79ZM202.98,68.61h-13.14v-10.2h13.14v10.2ZM202.14,45.38h12.4v36.79h-12.4v-36.79Z"/>
    <path class="cls-1" d="M220.53,82.17v-36.79h12.4v36.79h-12.4Z"/>
    <path class="cls-1" d="M252.64,83.01c-3.08,0-6.06-.35-8.93-1.05-2.87-.7-5.24-1.61-7.09-2.73l3.99-9.04c1.75,1.02,3.71,1.83,5.86,2.44,2.15.61,4.25.92,6.28.92,1.19,0,2.13-.08,2.81-.24.68-.16,1.18-.39,1.5-.68.32-.3.47-.66.47-1.08,0-.67-.37-1.19-1.1-1.58s-1.71-.71-2.92-.97c-1.21-.26-2.53-.54-3.97-.84-1.44-.3-2.88-.69-4.34-1.18-1.45-.49-2.79-1.14-3.99-1.94s-2.18-1.87-2.92-3.18-1.1-2.95-1.1-4.91c0-2.28.64-4.35,1.92-6.23,1.28-1.87,3.19-3.37,5.73-4.49,2.54-1.12,5.7-1.68,9.49-1.68,2.49,0,4.94.26,7.36.79s4.59,1.33,6.52,2.42l-3.73,8.99c-1.82-.91-3.58-1.59-5.28-2.05-1.7-.46-3.35-.68-4.97-.68-1.19,0-2.14.11-2.84.32-.7.21-1.2.49-1.5.84-.3.35-.45.74-.45,1.16,0,.63.37,1.13,1.1,1.5.74.37,1.71.68,2.92.92,1.21.25,2.54.51,3.99.79,1.45.28,2.9.67,4.34,1.16,1.44.49,2.76,1.14,3.97,1.94,1.21.81,2.18,1.86,2.92,3.15s1.1,2.91,1.1,4.83c0,2.24-.64,4.3-1.92,6.17-1.28,1.88-3.18,3.38-5.7,4.52s-5.69,1.71-9.51,1.71Z"/>
    <path class="cls-1" d="M273.45,82.17v-36.79h10.19l14.71,24.02h-5.36l14.29-24.02h10.19l.11,36.79h-11.3l-.11-19.76h1.79l-9.77,16.45h-5.47l-10.19-16.45h2.21v19.76h-11.3Z"/>
    <path class="cls-1" d="M342.92,83.01c-3.01,0-5.79-.47-8.33-1.42s-4.74-2.29-6.59-4.02c-1.86-1.73-3.3-3.78-4.34-6.12-1.03-2.35-1.55-4.9-1.55-7.67s.52-5.37,1.55-7.7c1.03-2.33,2.48-4.36,4.34-6.1,1.86-1.73,4.05-3.07,6.59-4.02s5.3-1.42,8.28-1.42,5.78.47,8.3,1.42,4.71,2.29,6.57,4.02c1.86,1.73,3.3,3.77,4.34,6.1,1.03,2.33,1.55,4.9,1.55,7.7s-.52,5.33-1.55,7.67c-1.03,2.35-2.48,4.39-4.34,6.12-1.86,1.73-4.05,3.07-6.57,4.02s-5.27,1.42-8.25,1.42ZM342.87,72.97c1.16,0,2.23-.21,3.23-.63,1-.42,1.87-1.02,2.63-1.81.75-.79,1.34-1.75,1.76-2.89.42-1.14.63-2.43.63-3.86s-.21-2.72-.63-3.86c-.42-1.14-1.01-2.1-1.76-2.89-.75-.79-1.63-1.39-2.63-1.81-1-.42-2.08-.63-3.23-.63s-2.23.21-3.23.63c-1,.42-1.87,1.02-2.63,1.81-.75.79-1.34,1.75-1.76,2.89-.42,1.14-.63,2.43-.63,3.86s.21,2.72.63,3.86c.42,1.14,1.01,2.1,1.76,2.89.75.79,1.63,1.39,2.63,1.81,1,.42,2.08.63,3.23.63Z"/>
    <path class="cls-1" d="M381.86,83.01c-3.08,0-6.06-.35-8.93-1.05-2.87-.7-5.24-1.61-7.09-2.73l3.99-9.04c1.75,1.02,3.71,1.83,5.86,2.44,2.15.61,4.25.92,6.28.92,1.19,0,2.13-.08,2.81-.24.68-.16,1.18-.39,1.5-.68.32-.3.47-.66.47-1.08,0-.67-.37-1.19-1.1-1.58s-1.71-.71-2.92-.97c-1.21-.26-2.53-.54-3.97-.84-1.44-.3-2.88-.69-4.34-1.18-1.45-.49-2.79-1.14-3.99-1.94s-2.18-1.87-2.92-3.18-1.1-2.95-1.1-4.91c0-2.28.64-4.35,1.92-6.23,1.28-1.87,3.19-3.37,5.73-4.49,2.54-1.12,5.7-1.68,9.49-1.68,2.49,0,4.94.26,7.36.79s4.59,1.33,6.52,2.42l-3.73,8.99c-1.82-.91-3.58-1.59-5.28-2.05-1.7-.46-3.35-.68-4.97-.68-1.19,0-2.14.11-2.84.32-.7.21-1.2.49-1.5.84-.3.35-.45.74-.45,1.16,0,.63.37,1.13,1.1,1.5.74.37,1.71.68,2.92.92,1.21.25,2.54.51,3.99.79,1.45.28,2.9.67,4.34,1.16,1.44.49,2.76,1.14,3.97,1.94,1.21.81,2.18,1.86,2.92,3.15s1.1,2.91,1.1,4.83c0,2.24-.64,4.3-1.92,6.17-1.28,1.88-3.18,3.38-5.7,4.52s-5.69,1.71-9.51,1.71Z"/>
    <path class="cls-1" d="M414.86,72.81h18.39v9.35h-30.58v-36.79h29.9v9.35h-17.71v18.08ZM414.02,59.05h16.4v8.93h-16.4v-8.93Z"/>
    <path class="cls-1" d="M434.04,82.17l16.08-36.79h12.19l16.08,36.79h-12.82l-11.88-30.9h4.83l-11.88,30.9h-12.61ZM443.61,75.76l3.15-8.93h16.92l3.15,8.93h-23.23Z"/>
  </g>
</svg>